# xmcd CD database file
#
# Track frame offsets:
#	150
#	16432
#	34720
#	51976
#	66180
#	86770
#	99566
#	112572
#	128435
#	141900
#	160555
#	181515
#	193881
#	206119
#	218961
#	232752
#	249756
#	265544
#	283805
#	301047
#
# Disc length: 4190 seconds
#
# Revision: 0
# Processed by: cddbd v1.5.2PL0 Copyright (c) Steve Scherf et al.
# Submitted via: CDex 1.78
#
DISCID=05105c14
DTITLE=Various Artist - TSP Country and Americana Vol 146
DYEAR=2015
DGENRE=Country
TTITLE0=Kenny Kozol - As Long As She's Working
TTITLE1=Heart To Heart - Are You Ready
TTITLE2=The C R Ecker Band - I Just Wanna Meet Girls
TTITLE3=Kelly Manu - Faith
TTITLE4=Concious Redheads - One Shot At A Time
TTITLE5=Meg Devlin Irish - When You Walked Away
TTITLE6=Clay Alston - Shelby
TTITLE7=Lisa Bell - Bring The Love
TTITLE8=Mountain Rio - Babes
TTITLE9=Jason V Chapman - Losing Faith
TTITLE10=Randy Burghardt - Gate Opens Wide
TTITLE11=Hank Falcon - One Heartache Away
TTITLE12=DSP Band - Give 'Em A Hand
TTITLE13=Jeff Mamett - The Writing's On The Wall
TTITLE14=Hank Falcon - No Go Places
TTITLE15=Zach Thomas - He's Calling Your Name
TTITLE16=Hank Falcon - Hot Tub Party At My House
TTITLE17=Kelly Manu - Would You Believe
TTITLE18=Hank Falcon - Rose Marie
TTITLE19=Zach Thomas - Lord I Made A List Today
EXTD=YEAR: 2015
EXTT0=
EXTT1=
EXTT2=
EXTT3=
EXTT4=
EXTT5=
EXTT6=
EXTT7=
EXTT8=
EXTT9=
EXTT10=
EXTT11=
EXTT12=
EXTT13=
EXTT14=
EXTT15=
EXTT16=
EXTT17=
EXTT18=
EXTT19=
PLAYORDER=
